# xmcd CD database file
#
# Track frame offsets:
#	150
#	15961
#	33883
#	47547
#	56838
#	72880
#	87975
#	102922
#	116578
#	135693
#	150262
#
# Disc length: 2224 seconds
#
# Revision: 1
# Processed by: cddbd v1.5PL3 Copyright (c) Steve Scherf et al.
# Submitted via: CDex 1.51
#
DISCID=8008ae0b
DTITLE=Edberto e Edinei - Santuário Ecológico
DYEAR=1999
DGENRE=Country
TTITLE0=A1 - Santuário Ecológico (Guarânia)
TTITLE1=A2 - Alucinado por Amar (Polca)
TTITLE2=A3 - Meus Momentos (Balanço)
TTITLE3=A4 - Quatro Estações (Raqueado)
TTITLE4=A5 - Só aprendi Te Amar (Balanço)
TTITLE5=A6 - Linda Americana (Cautri)
TTITLE6=B1 - Não Voltarei Atrás (Guarânia)
TTITLE7=B2 - O Monjolinho (Polca)
TTITLE8=B3 - Ter Você é Bom Demais
TTITLE9=B4 - Quando o Inverno Chegar
TTITLE10=B5 - Herança de Carreiro
EXTD=YEAR: 1999
EXTT0=
EXTT1=
EXTT2=
EXTT3=
EXTT4=
EXTT5=
EXTT6=
EXTT7=
EXTT8=
EXTT9=
EXTT10=
PLAYORDER=
